<?xml version="1.0" encoding="utf-8"?>
<!-- Generator: Adobe Illustrator 24.0.0, SVG Export Plug-In . SVG Version: 6.00 Build 0)  -->
<svg version="1.1" id="Layer_1" xmlns="http://www.w3.org/2000/svg" xmlns:xlink="http://www.w3.org/1999/xlink" x="0px" y="0px"
	 width="13.5px" height="16.2px" viewBox="0 0 13.5 16.2" style="enable-background:new 0 0 13.5 16.2;" xml:space="preserve">
<style type="text/css">
	.st0{fill:#EDEDED;}
</style>
<path id="iconmonstr-trash-can-1" class="st0" d="M0.7,4.1v12.2h12.2V4.1H0.7z M4.1,13.5c0,0.4-0.3,0.7-0.7,0.7s-0.7-0.3-0.7-0.7
	V6.8c0-0.4,0.3-0.7,0.7-0.7s0.7,0.3,0.7,0.7V13.5z M7.4,13.5c0,0.4-0.3,0.7-0.7,0.7s-0.7-0.3-0.7-0.7V6.8c0-0.4,0.3-0.7,0.7-0.7
	s0.7,0.3,0.7,0.7V13.5z M10.8,13.5c0,0.4-0.3,0.7-0.7,0.7s-0.7-0.3-0.7-0.7V6.8c0-0.4,0.3-0.7,0.7-0.7s0.7,0.3,0.7,0.7V13.5z
	 M13.5,1.4v1.4H0V1.4h3.9C4.5,1.4,5,0.6,5,0h3.6c0,0.6,0.5,1.4,1.1,1.4H13.5z"/>
</svg>
