<?xml version="1.0" encoding="utf-8"?>
<!-- Generator: Adobe Illustrator 24.0.0, SVG Export Plug-In . SVG Version: 6.00 Build 0)  -->
<svg version="1.1" id="Layer_1" xmlns="http://www.w3.org/2000/svg" xmlns:xlink="http://www.w3.org/1999/xlink" x="0px" y="0px"
	 width="47px" height="22px" viewBox="0 0 47 22" style="enable-background:new 0 0 47 22;" xml:space="preserve">
<style type="text/css">
	.st0{fill:#EDEDED;}
	.st1{fill:none;stroke:#707070;}
	.st2{fill:#E6B81C;}
</style>
<g id="Rectangle_163">
	<path class="st0" d="M11,0h25c6.1,0,11,4.9,11,11l0,0c0,6.1-4.9,11-11,11H11C4.9,22,0,17.1,0,11l0,0C0,4.9,4.9,0,11,0z"/>
	<path class="st1" d="M11,0.5h25c5.8,0,10.5,4.7,10.5,10.5l0,0c0,5.8-4.7,10.5-10.5,10.5H11C5.2,21.5,0.5,16.8,0.5,11l0,0
		C0.5,5.2,5.2,0.5,11,0.5z"/>
</g>
<circle id="Ellipse_101" class="st2" cx="10" cy="11" r="10"/>
</svg>
