<?xml version="1.0" encoding="utf-8"?>
<!-- Generator: Adobe Illustrator 24.0.0, SVG Export Plug-In . SVG Version: 6.00 Build 0)  -->
<svg version="1.1" id="Layer_1" xmlns="http://www.w3.org/2000/svg" xmlns:xlink="http://www.w3.org/1999/xlink" x="0px" y="0px"
	 width="306px" height="193px" viewBox="0 0 306 193" style="enable-background:new 0 0 306 193;" xml:space="preserve">
<style type="text/css">
	.st0{fill:#1C1B1B;}
	.st1{fill:#00914B;}
	.st2{fill:#FFFFFF;}
</style>
<path class="st0" d="M305.8,178.2H-0.5V14.3C-0.5,6.4,5.9,0,13.9,0h277.6c7.9,0,14.3,6.4,14.3,14.3V178.2z"/>
<path class="st1" d="M295.5,193H10.2c-5.8,0-10.5-4.7-10.5-10.5V166H306v16.5C306,188.3,301.3,193,295.5,193z"/>
<g>
	<path class="st2" d="M133.1,53.4c2.1,0,4-0.1,5.9,0.1c0.7,0.1,1.4,0.8,1.9,1.5c2.9,4.4,5.7,8.9,9,14c0-5.5,0-10.4,0-15.4
		c2.8,0,5.3,0,8,0c0,10.5,0,21,0,31.7c-2,0-4,0.1-5.9-0.1c-0.6-0.1-1.3-0.7-1.7-1.3c-2.6-3.9-5-7.8-7.6-11.7
		c-0.4-0.6-0.8-1.1-1.6-1.6c0,4.8,0,9.6,0,14.6c-2.8,0-5.3,0-7.9,0C133.1,74.7,133.1,64.2,133.1,53.4z"/>
	<path class="st2" d="M165.7,85.2c0-10.6,0-21.1,0-31.7c7.2,0,14.2,0,21.4,0c0,2.2,0,4.4,0,6.9c-4.4,0-8.9,0-13.5,0
		c0,1.8,0,3.3,0,5.1c3.8,0,7.6,0,11.5,0c0,2.5,0,4.7,0,7.2c-3.8,0-7.6,0-11.5,0c0,1.9,0,3.6,0,5.4c4.5,0,9,0,13.5,0c0,2.5,0,4.7,0,7
		C180,85.2,173,85.2,165.7,85.2z"/>
	<path class="st2" d="M220.2,81.3c1.7-1.7,3.2-3.3,4.9-4.9c2.6,1.9,5.5,2.3,8.5,2c1.6-0.2,3.1-0.8,3.1-2.7c0-1.9-1.4-2.5-3-2.7
		c-1.7-0.2-3.3-0.4-4.9-0.8c-3.3-0.7-5.9-2.4-6.8-6c-0.9-3.8-0.3-7.3,2.6-10c4.7-4.5,14.9-4,19.4,0.9c-1.6,1.6-3.2,3.1-4.2,4.2
		c-2.8-0.4-5.1-0.9-7.4-1c-1.6-0.1-2.8,0.9-2.9,2.6c-0.1,1.8,1.3,2.2,2.8,2.5c1.6,0.3,3.3,0.4,5,0.7c3.4,0.7,6.2,2.3,7.1,5.9
		c0.9,3.9,0.6,7.6-2.6,10.4C236.5,87.1,225.1,86.5,220.2,81.3z"/>
	<path class="st2" d="M192.1,81.3c1.6-1.5,3.3-3,4.6-4.3c2.6,0.5,5.2,1,7.8,1.4c0.7,0.1,1.6,0.1,2.1-0.3c0.8-0.7,1.8-1.7,1.8-2.5
		c0-0.8-1.1-2-2-2.3c-1.8-0.6-3.9-0.6-5.8-1c-3.5-0.7-6.1-2.5-6.9-6.1c-0.8-3.9-0.2-7.6,3.1-10.3c4.8-4,14.5-3.3,19,1.3
		c-1.6,1.5-3.2,3.1-4.5,4.2c-2.5-0.4-4.7-0.9-7-1.1c-1.7-0.1-3.1,0.9-3.1,2.7c-0.1,1.7,1.4,2.2,2.8,2.4c1.7,0.3,3.5,0.4,5.2,0.8
		c3.3,0.7,5.9,2.3,6.7,5.7c0.9,3.7,0.7,7.3-2.1,10.2C208.9,87.1,196.9,86.7,192.1,81.3z"/>
	<path class="st2" d="M80.2,73c-3.9,0-7.6,0-11.5,0c0,4,0,8,0,12.1c-2.7,0-5.2,0-7.8,0c0-10.5,0-20.9,0-31.5c7,0,14,0,21.3,0
		c0,2.2,0,4.4,0,6.8c-4.3,0-8.7,0-13.3,0c0,1.9,0,3.6,0,5.5c3.7,0,7.5,0,11.4,0C80.2,68.3,80.2,70.5,80.2,73z"/>
	<path class="st2" d="M126.8,60.6c-2.6,0-5,0-7.6,0c0,8.3,0,16.4,0,24.6c-2.7,0-5.2,0-7.9,0c0-8.1,0-16.2,0-24.6c-2.7,0-5.2,0-7.7,0
		c0-2.5,0-4.7,0-7c7.8,0,15.5,0,23.3,0C126.8,55.8,126.8,58,126.8,60.6z"/>
	<path class="st2" d="M89.3,53.5c2.6,0,5,0,7.6,0c0,10.5,0,21,0,31.6c-2.4,0-4.9,0-7.6,0C89.3,74.6,89.3,64.1,89.3,53.5z"/>
	<path class="st2" d="M244.6,94.6c-1.9,1.2-182.6,1.1-184.1,0C122,94.6,183.3,94.6,244.6,94.6z"/>
</g>
<path class="st2" d="M77.6,116.1c0.7-2.7,1.4-5.4,2-8.1c0.2-1,0.6-2,0.7-3c0.2-2.4,1.4-3.1,3.9-2.3c-0.2,1.1-0.4,2.2-0.7,3.3
	c-1.4,5.3-2.7,10.5-4.2,15.8c-0.2,0.6-1,1.2-1.7,1.4c-1.1,0.4-1.6-0.3-1.9-1.4c-1.1-4.1-2.3-8.1-3.7-12.8c-1.3,4.4-2.4,8.1-3.4,11.9
	c-0.7,2.5-0.7,2.5-3.6,2.1c-1.7-6.7-3.5-13.4-5.3-20.1c2.9-0.9,3.2-0.8,3.9,1.8c0.9,3.8,1.9,7.5,3.3,11.3c1.1-3.9,2.1-7.8,3.3-11.6
	c0.3-0.9,0.2-2,1.8-2c1.6-0.1,1.7,1,2,2c1.1,3.9,2.2,7.8,3.3,11.7C77.3,116.1,77.5,116.1,77.6,116.1z"/>
<path class="st2" d="M229.2,102.5c2.9,0,5.6-0.2,8.3,0c3.5,0.3,5.8,2.5,6.1,6c0.2,2.7,0.2,5.5,0,8.3c-0.3,3.7-2.7,6.1-6.4,6.3
	c-2.6,0.1-5.2,0-8,0C229.2,116.3,229.2,109.5,229.2,102.5z M232.3,120.2c1.4,0,2.6,0,3.9,0c2.5-0.1,3.9-1.1,4.1-3.6
	c0.2-2.7,0.1-5.4,0-8c-0.1-1.7-1.3-2.8-3-3c-1.6-0.2-3.3,0-5,0C232.3,110.4,232.3,115.1,232.3,120.2z"/>
<path class="st2" d="M145.7,123c0-6.8,0-13.6,0-20.4c3.3,0,6.6-0.2,9.8,0.1c2.4,0.2,4.1,2.2,4.5,4.5c0.5,2.8-0.4,5-2.7,6.4
	c-0.4,0.2-0.7,0.4-1.1,0.7c1.5,2.9,3,5.7,4.4,8.6c-3.1,0.9-3.4,0.7-4.8-2c-0.6-1.2-1.2-2.5-1.9-3.7c-1.5-3-1.5-3-5.2-2.4
	c0,1.3,0,2.7,0,4.1c0,1.4,0,2.8,0,4.3C147.8,123,146.9,123,145.7,123z M149,105.3c0,2.1,0,4.2,0,6.4c1.6,0,3.1,0.1,4.6,0
	c1.9-0.1,3.2-1.1,3.3-3.1c0.1-1.8-1.2-3.1-3.4-3.2C152.1,105.3,150.7,105.3,149,105.3z"/>
<path class="st2" d="M120.8,112.9c0,1.2,0.1,2.3,0,3.5c-0.2,4.1-2.8,6.7-6.9,7c-4.1,0.3-7.4-2.2-7.8-6.3c-0.3-2.8-0.3-5.7,0-8.5
	c0.4-4,3.7-6.6,7.7-6.4c4,0.2,6.7,2.9,7,6.9C120.9,110.4,120.8,111.6,120.8,112.9C120.8,112.9,120.8,112.9,120.8,112.9z
	 M117.8,112.8c-0.1,0-0.1,0-0.2,0c0-1,0-2,0-3.1c0-0.4-0.1-0.9-0.2-1.3c-0.5-2.1-2-3.3-4-3.2c-2.1,0.1-3.7,1.3-3.9,3.4
	c-0.2,2.8-0.2,5.7,0,8.5c0.1,2,2,3.5,3.9,3.4c2-0.1,3.5-1,3.9-3.1C117.6,115.8,117.6,114.3,117.8,112.8z"/>
<path class="st2" d="M187.8,102.5c1,0,1.9,0,3,0c0,5.8,0,11.6,0,17.6c3.4,0,6.6,0,9.9,0c0,1.1,0,1.9,0,2.9c-4.2,0-8.5,0-12.9,0
	C187.8,116.3,187.8,109.5,187.8,102.5z"/>
</svg>
