<?xml version="1.0" encoding="utf-8"?>
<!-- Generator: Adobe Illustrator 23.1.1, SVG Export Plug-In . SVG Version: 6.00 Build 0)  -->
<svg version="1.1" id="Layer_1" xmlns="http://www.w3.org/2000/svg" xmlns:xlink="http://www.w3.org/1999/xlink" x="0px" y="0px"
	 width="28px" height="28.6px" viewBox="0 0 28 28.6" style="enable-background:new 0 0 28 28.6;" xml:space="preserve">
<style type="text/css">
	.st0{fill:#31525C;}
	.st1{fill:#E6B81C;}
	.st2{fill:#FFFFFF;}
	.st3{fill:none;}
	.st4{fill:#BEBEBE;}
</style>
<g id="Path_233">
	<path class="st3" d="M14,0.3c7.7,0,14,6.3,14,14l0,0c0,2.8-0.8,5.5-2.4,7.8c-2.6,3.9-7,6.2-11.6,6.2c-7.7,0-14-6.3-14-14
		S6.3,0.3,14,0.3z"/>
	<path class="st4" d="M14,2.3c-3.2,0-6.2,1.2-8.5,3.5C3.2,8.1,2,11.1,2,14.3c0,3.2,1.2,6.2,3.5,8.5s5.3,3.5,8.5,3.5
		c2,0,4.1-0.5,5.8-1.5c1.7-0.9,3.1-2.2,4.1-3.8c1.4-2.1,2-4.3,2-6.7c0-3.2-1.2-6.2-3.5-8.5C20.2,3.5,17.2,2.3,14,2.3 M14,0.3
		c7.7,0,14,6.3,14,14c0,2.8-0.8,5.4-2.4,7.8c-2.3,3.6-6.7,6.2-11.6,6.2c-7.7,0-14-6.3-14-14C0,6.5,6.3,0.3,14,0.3z"/>
</g>
<g id="Group_44" transform="translate(-1031.377 -463.126)">
	<path id="Path_41" class="st4" d="M1046.9,482.8c0,0.7-0.6,1.3-1.3,1.3c-0.7,0-1.3-0.6-1.3-1.3c0-0.7,0.6-1.3,1.3-1.3
		C1046.3,481.5,1046.9,482.1,1046.9,482.8C1046.9,482.8,1046.9,482.8,1046.9,482.8z M1045.7,471.9c-2.1,0-3.6,1.4-3.6,4.1h2
		c0-1.2,0.5-2.1,1.5-2.1c0.7,0,1.3,0.5,1.4,1.2c0.1,0.8-0.4,1.3-1,1.8c-1.5,1.4-1.4,2.1-1.4,3.7h2c-0.1-0.9,0.2-1.8,0.9-2.4
		c0.9-0.8,1.4-1.9,1.5-3c0.1-1.7-1.3-3.2-3-3.3C1046,471.9,1045.8,471.9,1045.7,471.9L1045.7,471.9z"/>
</g>
</svg>
