<?xml version="1.0" encoding="utf-8"?>
<!-- Generator: Adobe Illustrator 23.1.1, SVG Export Plug-In . SVG Version: 6.00 Build 0)  -->
<svg version="1.1" id="Layer_1" xmlns="http://www.w3.org/2000/svg" xmlns:xlink="http://www.w3.org/1999/xlink" x="0px" y="0px"
	 width="28px" height="28.6px" viewBox="0 0 28 28.6" style="enable-background:new 0 0 28 28.6;" xml:space="preserve">
<style type="text/css">
	.st0{fill:#31525C;}
	.st1{fill:#E6B81C;}
	.st2{fill:#FFFFFF;}
	.st3{fill:none;}
	.st4{fill:#BEBEBE;}
	.st5{fill:#82B5BE;}
</style>
<g id="Group_187" transform="translate(-316 -33)">
	<g id="Path_233" transform="translate(316 33)">
		<path class="st3" d="M14,0c7.7,0,14,6.3,14,14l0,0c0,2.8-0.8,5.5-2.4,7.8c-2.6,3.9-7,6.2-11.6,6.2C6.3,28,0,21.7,0,14S6.3,0,14,0z
			"/>
		<path class="st4" d="M14,2c-3.2,0-6.2,1.2-8.5,3.5S2,10.8,2,14c0,3.2,1.2,6.2,3.5,8.5S10.8,26,14,26c2,0,4.1-0.5,5.8-1.5
			c1.7-0.9,3.1-2.2,4.1-3.8c1.4-2.1,2-4.3,2-6.7c0-3.2-1.2-6.2-3.5-8.5S17.2,2,14,2 M14,0c7.7,0,14,6.3,14,14c0,2.8-0.8,5.4-2.4,7.8
			C23.3,25.4,19,28,14,28C6.3,28,0,21.7,0,14C0,6.3,6.3,0,14,0z"/>
	</g>
	<g id="Group_44" transform="translate(-715.377 -430.126)">
		<path id="Path_41" class="st5" d="M1046.9,482.5c0,0.7-0.6,1.3-1.3,1.3c-0.7,0-1.3-0.6-1.3-1.3c0-0.7,0.6-1.3,1.3-1.3
			C1046.3,481.2,1046.9,481.8,1046.9,482.5C1046.9,482.5,1046.9,482.5,1046.9,482.5z M1045.7,471.7c-2.1,0-3.6,1.4-3.6,4.1h2
			c0-1.2,0.5-2.1,1.5-2.1c0.7,0,1.3,0.5,1.4,1.2c0.1,0.8-0.4,1.3-1,1.8c-1.5,1.4-1.4,2.1-1.4,3.7h2c-0.1-0.9,0.2-1.8,0.9-2.4
			c0.9-0.8,1.4-1.9,1.5-3c0.1-1.7-1.3-3.2-3-3.3C1046,471.7,1045.8,471.7,1045.7,471.7L1045.7,471.7z"/>
	</g>
</g>
</svg>
