<?xml version="1.0" encoding="utf-8"?>
<!-- Generator: Adobe Illustrator 24.0.0, SVG Export Plug-In . SVG Version: 6.00 Build 0)  -->
<svg version="1.1" id="Layer_1" xmlns="http://www.w3.org/2000/svg" xmlns:xlink="http://www.w3.org/1999/xlink" x="0px" y="0px"
	 width="306px" height="193px" viewBox="0 0 306 193" style="enable-background:new 0 0 306 193;" xml:space="preserve">
<style type="text/css">
	.st0{fill:#145671;}
	.st1{fill:#F2F0F0;}
	.st2{font-family:'PingFangHK-Medium-B5pc-H';}
	.st3{font-size:15px;}
	.st4{fill:#FFFFFF;}
</style>
<path id="Rectangle_1" class="st0" d="M14,0h278c7.7,0,14,6.3,14,14v165c0,7.7-6.3,14-14,14H14c-7.7,0-14-6.3-14-14V14
	C0,6.3,6.3,0,14,0z"/>
<text transform="matrix(1 0 0 1 134 28)" class="st1 st2 st3">Mikkel Høpners hjem</text>
<g id="Group_2" transform="translate(-1565.999 -201.086)">
	<path id="Path_222" class="st4" d="M1689.8,226.5c-2-0.4-3.8-0.8-2.9-2.5c2.7-5,0.7-7.7-2.1-7.7c-2.9,0-4.8,2.8-2.1,7.7
		c0.9,1.7-1,2.1-2.9,2.5c-1.7,0.4-1.8,1.3-1.8,2.8v0.6h13.6v-0.5C1691.6,227.8,1691.6,226.9,1689.8,226.5z"/>
</g>
</svg>
