<?xml version="1.0" encoding="utf-8"?>
<!-- Generator: Adobe Illustrator 24.0.0, SVG Export Plug-In . SVG Version: 6.00 Build 0)  -->
<svg version="1.1" id="Layer_1" xmlns="http://www.w3.org/2000/svg" xmlns:xlink="http://www.w3.org/1999/xlink" x="0px" y="0px"
	 width="306px" height="193px" viewBox="0 0 306 193" style="enable-background:new 0 0 306 193;" xml:space="preserve">
<style type="text/css">
	.st0{fill:#880D0D;}
	.st1{fill:#FFFFFF;}
	.st2{fill:none;}
	.st3{fill:none;stroke:#FFFFFF;stroke-width:3;}
	.st4{fill:#F2F0F0;}
	.st5{font-family:'PingFangHK-Medium-B5pc-H';}
	.st6{font-size:15px;}
</style>
<path id="Rectangle_1" class="st0" d="M13.9,0h278c7.7,0,14,6.3,14,14v165c0,7.7-6.3,14-14,14h-278c-7.7,0-14-6.3-14-14V14
	C-0.1,6.3,6.2,0,13.9,0z"/>
<g id="Group_1" transform="translate(57.837 30.707)">
	<g id="Group_62" transform="translate(0 0)">
		<g id="Group_165" transform="translate(0 0)">
			<path id="iconmonstr-home-1" class="st1" d="M36.2,15.8l27.2,24.3v26.6H45.2V49.3H27.1v17.4H9V40.1L36.2,15.8z M72.4,32.3L36.2,0
				L-0.1,32.3L4,36.5L36.2,7.9l32.2,28.7L72.4,32.3z"/>
		</g>
	</g>
</g>
<g id="Ellipse_1" transform="translate(32 9)">
	<ellipse class="st2" cx="62.4" cy="59.5" rx="62.5" ry="59.5"/>
	<ellipse class="st3" cx="62.4" cy="59.5" rx="61" ry="58"/>
</g>
<text transform="matrix(1 0 0 1 204.8964 29)" class="st4 st5 st6">My Home</text>
</svg>
