<svg xmlns="http://www.w3.org/2000/svg" xmlns:xlink="http://www.w3.org/1999/xlink" width="319" height="107" viewBox="0 0 319 107">
  <defs>
    <filter id="Skærmbillede_2019-11-01_kl._13.34.21" x="-9" y="-6" width="337" height="126" filterUnits="userSpaceOnUse">
      <feOffset dy="3" input="SourceAlpha"/>
      <feGaussianBlur stdDeviation="3" result="blur"/>
      <feFlood flood-opacity="0.161"/>
      <feComposite operator="in" in2="blur"/>
      <feComposite in="SourceGraphic"/>
    </filter>
    <clipPath id="clip-Web_1920_1">
      <rect width="319" height="107"/>
    </clipPath>
  </defs>
  <g id="Web_1920_1" data-name="Web 1920 – 1" clip-path="url(#clip-Web_1920_1)">
    <rect width="319" height="107" fill="#fff"/>
    <g id="Group_194" data-name="Group 194" transform="translate(-28 -536)">
      <g id="Group_169" data-name="Group 169" transform="translate(28 536.082)">
        <g transform="matrix(1, 0, 0, 1, 0, -0.08)" filter="url(#Skærmbillede_2019-11-01_kl._13.34.21)">
          <rect id="Skærmbillede_2019-11-01_kl._13.34.21-2" data-name="Skærmbillede 2019-11-01 kl. 13.34.21" width="319" height="108" rx="14" fill="#0f5771"/>
        </g>
      </g>
      <text id="Mikkel_Høpners_hjem" data-name="Mikkel Høpners hjem" transform="translate(180 567)" fill="#f2f0f0" font-size="15" font-family="PingFangHK-Medium, PingFang HK" font-weight="500" letter-spacing="0.012em"><tspan x="0" y="0">Mikkel Høpners hjem</tspan></text>
      <g id="Group_171" data-name="Group 171" transform="translate(-1519.999 337.914)">
        <path id="Path_222" data-name="Path 222" d="M1689.819,226.485c-1.952-.448-3.769-.841-2.889-2.495,2.679-5.032.71-7.723-2.119-7.723-2.885,0-4.8,2.795-2.118,7.723.906,1.663-.979,2.056-2.889,2.495-1.745.4-1.81,1.263-1.8,2.769l0,.565h13.618l0-.547C1691.629,227.754,1691.57,226.888,1689.819,226.485Z" transform="translate(0)" fill="#fff"/>
      </g>
    </g>
  </g>
</svg>
