<?xml version="1.0" encoding="utf-8"?>
<!-- Generator: Adobe Illustrator 23.0.6, SVG Export Plug-In . SVG Version: 6.00 Build 0)  -->
<svg version="1.1" id="Layer_1" xmlns="http://www.w3.org/2000/svg" xmlns:xlink="http://www.w3.org/1999/xlink" x="0px" y="0px"
	 viewBox="0 0 25.06 23.66" style="enable-background:new 0 0 25.06 23.66;" xml:space="preserve">
<style type="text/css">
	.st0{fill:#31525C;}
	.st1{fill:#E6B81C;}
	.st2{fill:#FFFFFF;}
	.st3{fill:#E3E3E3;}
	.st4{font-family:'Montserrat-Light';}
	.st5{font-size:3.0967px;}
</style>
<g>
	<circle class="st0" cx="11.96" cy="11.53" r="10.57"/>
	<g>
		<g>
			<g>
				<path class="st1" d="M14.05,8.42l3.19-1.13c0.35-0.03,0.7,0.02,1.02,0.14c0.13,0.05,0.25,0.11,0.36,0.19
					c0.09,0.07,0.17,0.16,0.24,0.26c0.45,0.6,0.48,1.48,0.09,2.12c-0.4,0.63-1.21,0.99-1.94,0.84l-0.92,0l-2.06-1.47L14.05,8.42z"/>
			</g>
			<g>
				<g>
					<path class="st2" d="M17.13,7.31c0.03,0.47-0.14,0.94-0.44,1.31c-0.3,0.37-0.75,0.68-1.25,0.67c-0.05,0-0.05,0.08,0,0.08
						c0.52,0.01,0.99-0.3,1.3-0.69c0.31-0.38,0.49-0.87,0.46-1.36C17.21,7.26,17.13,7.26,17.13,7.31L17.13,7.31z"/>
				</g>
			</g>
			<g>
				<path class="st1" d="M14.06,8.58c-0.04-0.48,0-0.98,0.13-1.45c0.11-0.39,0.28-0.77,0.59-1.03c0.45-0.37,1.14-0.4,1.63-0.09
					c0.44,0.27,0.72,0.78,0.76,1.3"/>
			</g>
			<g>
				<path class="st1" d="M14.05,9.38c-0.02,0.51-0.04,1.03,0.1,1.52c0.14,0.49,0.46,0.96,0.94,1.13c0.17,0.06,0.36,0.09,0.55,0.06
					c0.08-0.01,0.15-0.03,0.23-0.05c0.28-0.08,0.54-0.22,0.73-0.43c0.19-0.21,0.31-0.5,0.29-0.78"/>
			</g>
			<g>
				<g>
					<path class="st2" d="M14.09,8.47c0.32,0.01,0.65,0.09,0.9,0.32c0.26,0.24,0.34,0.6,0.37,0.94c0,0.05,0.09,0.05,0.08,0
						c-0.03-0.36-0.12-0.74-0.39-1c-0.26-0.24-0.61-0.33-0.96-0.35C14.04,8.39,14.04,8.47,14.09,8.47L14.09,8.47z"/>
				</g>
			</g>
			<path class="st2" d="M17,8.2c0,0,0.44-0.42,0.75,0.36C17.75,8.56,16.85,8.68,17,8.2z"/>
			<path class="st2" d="M16.69,8.69c0,0,0.34-0.82-0.55-0.82C16.14,7.87,16.25,9.02,16.69,8.69z"/>
			<path class="st2" d="M15.92,9.29c0,0-0.35,0.22,0.08,0.63C16,9.92,16.43,9.16,15.92,9.29z"/>
			<path class="st2" d="M14.63,8.47c0,0-0.35-0.25,0-0.71C14.63,7.76,15.26,8.41,14.63,8.47z"/>
			<polygon class="st1" points="14.09,8.54 5.51,8.54 5.51,9.38 5.95,9.38 5.95,10.97 6.67,10.97 6.68,9.48 7.28,9.48 7.27,10.97 
				7.99,10.97 7.99,9.37 14.09,9.37 			"/>
		</g>
		<text transform="matrix(1 0 0 1 5.2156 16.0028)" class="st3 st4 st5">MultiKEY</text>
	</g>
</g>
</svg>
