<?xml version="1.0" encoding="utf-8"?>
<!-- Generator: Adobe Illustrator 23.1.1, SVG Export Plug-In . SVG Version: 6.00 Build 0)  -->
<svg version="1.1" id="Layer_1" xmlns="http://www.w3.org/2000/svg" xmlns:xlink="http://www.w3.org/1999/xlink" x="0px" y="0px"
	 width="131.6px" height="132.1px" viewBox="0 0 131.6 132.1" style="enable-background:new 0 0 131.6 132.1;" xml:space="preserve"
	>
<style type="text/css">
	.st0{fill:#31525C;}
	.st1{fill:#E6B81C;}
	.st2{fill:#FFFFFF;}
	.st3{fill:none;}
	.st4{fill:#BEBEBE;}
	.st5{fill:#82B5BE;}
	.st6{fill:#E3E3E3;}
	.st7{font-family:'Montserrat-Light';}
	.st8{font-size:16px;}
</style>
<circle id="Ellipse_99" class="st0" cx="66.1" cy="66.6" r="65.5"/>
<g transform="translate(20 53.947)">
	<g id="Group_179" transform="translate(1 -19)">
		<g id="Group_172" transform="translate(56.335 9.791)">
			<path id="Path_223" class="st1" d="M0.7,8.6l21.1-7.5c2.3-0.2,4.6,0.1,6.8,0.9c0.8,0.3,1.6,0.7,2.4,1.3c0.6,0.5,1.2,1.1,1.6,1.7
				c4.1,5.5,3,13.2-2.5,17.3c-2.8,2.1-6.4,2.9-9.8,2.2l-6.1,0L0.6,14.8L0.7,8.6z"/>
		</g>
		<g id="Group_174" transform="translate(65.543 9.723)">
			<g id="Group_173">
				<path id="Path_224" class="st2" d="M12,1.3c0.2,3.1-0.9,6.2-2.9,8.7c-2,2.5-5,4.5-8.2,4.4c-0.2,0-0.3,0.1-0.3,0.3
					c0,0.1,0.1,0.2,0.3,0.3c3.4,0.1,6.5-2,8.6-4.6c2.1-2.5,3.2-5.8,3-9C12.5,1,11.9,1,12,1.3z"/>
			</g>
		</g>
		<g id="Group_175" transform="translate(56.51)">
			<path id="Path_225" class="st1" d="M0.7,19.4c-0.3-3.2,0-6.5,0.8-9.6c0.6-2.6,1.9-5,3.9-6.8c3.1-2.4,7.4-2.7,10.8-0.6
				c2.9,1.9,4.8,5.1,5,8.6"/>
		</g>
		<g id="Group_176" transform="translate(56.421 23.678)">
			<path id="Path_226" class="st1" d="M0.7,1.1C0.5,4.4,0.4,7.9,1.3,11.1s3.1,6.3,6.2,7.5C8.7,19,10,19.2,11.2,19
				c0.5-0.1,1-0.2,1.5-0.3c1.9-0.5,3.5-1.5,4.8-2.8c1.3-1.4,2-3.3,1.9-5.2"/>
		</g>
		<g id="Group_178" transform="translate(56.554 17.151)">
			<g id="Group_177">
				<path id="Path_227" class="st2" d="M0.8,1.6c2.2,0,4.3,0.7,5.9,2.1C8.5,5.3,9,7.7,9.2,10c0,0.4,0.6,0.4,0.5,0
					C9.6,7.6,9,5.1,7.2,3.4C5.4,1.9,3.1,1,0.8,1.1C0.5,1.1,0.5,1.6,0.8,1.6z"/>
			</g>
		</g>
		<path id="Path_228" class="st2" d="M76.6,17c0,0,2.9-2.8,5,2.4C81.6,19.4,75.7,20.1,76.6,17z"/>
		<path id="Path_229" class="st2" d="M74.6,20.2c0,0,2.2-5.4-3.6-5.4C70.9,14.8,71.7,22.4,74.6,20.2z"/>
		<path id="Path_230" class="st2" d="M69.5,24.2c0,0-2.3,1.4,0.5,4.2C70,28.4,72.8,23.3,69.5,24.2z"/>
		<path id="Path_231" class="st2" d="M60.9,18.8c0,0-2.3-1.7,0-4.7C60.9,14.1,65.1,18.4,60.9,18.8z"/>
		<path id="Path_232" class="st1" d="M57.4,19.2H0.6v5.6h2.9v10.5h4.8l0.1-9.9h4l-0.1,9.9H17V24.7h40.4V19.2z"/>
	</g>
	<text transform="matrix(1 0 0 1 9.2315 45.1692)" class="st6 st7 st8">MultiKEY</text>
</g>
</svg>
