<?xml version="1.0" encoding="utf-8"?>
<!-- Generator: Adobe Illustrator 23.0.6, SVG Export Plug-In . SVG Version: 6.00 Build 0)  -->
<svg version="1.1" id="Layer_1" xmlns="http://www.w3.org/2000/svg" xmlns:xlink="http://www.w3.org/1999/xlink" x="0px" y="0px"
	 viewBox="0 0 210.06 198.32" style="enable-background:new 0 0 210.06 198.32;" xml:space="preserve">
<style type="text/css">
	.st0{fill:#31525C;}
	.st1{fill:#E6B81C;}
	.st2{fill:#FFFFFF;}
	.st3{fill:#E3E3E3;}
	.st4{font-family:'Montserrat-Light';}
	.st5{font-size:28px;}
</style>
<g>
	<circle class="st0" cx="105.03" cy="99.16" r="95.58"/>
	<g>
		<g>
			<g>
				<path class="st1" d="M123.89,71.05l28.85-10.23c3.12-0.27,6.31,0.17,9.24,1.29c1.14,0.43,2.25,0.97,3.21,1.72
					c0.85,0.65,1.57,1.45,2.21,2.31c4.05,5.44,4.38,13.39,0.78,19.13c-3.6,5.74-10.92,8.91-17.57,7.58l-8.31-0.03l-18.65-13.29
					L123.89,71.05z"/>
			</g>
			<g>
				<g>
					<path class="st2" d="M151.78,61.01c0.26,4.29-1.25,8.49-3.94,11.81c-2.73,3.36-6.79,6.13-11.26,6.04
						c-0.48-0.01-0.48,0.74,0,0.75c4.66,0.09,8.94-2.75,11.79-6.26c2.82-3.47,4.43-7.85,4.16-12.34
						C152.5,60.53,151.75,60.53,151.78,61.01L151.78,61.01z"/>
				</g>
			</g>
			<g>
				<path class="st1" d="M124.04,72.45c-0.4-4.38,0-8.83,1.16-13.07c0.96-3.49,2.53-6.96,5.31-9.27c4.04-3.37,10.28-3.59,14.77-0.84
					c4.02,2.47,6.54,7.04,6.87,11.75"/>
			</g>
			<g>
				<path class="st1" d="M123.9,79.7c-0.19,4.6-0.36,9.29,0.89,13.72s4.2,8.64,8.53,10.2c1.57,0.57,3.27,0.77,4.93,0.58
					c0.71-0.08,1.4-0.23,2.09-0.42c2.5-0.69,4.87-1.96,6.62-3.88c1.75-1.91,2.82-4.5,2.65-7.09"/>
			</g>
			<g>
				<g>
					<path class="st2" d="M124.31,71.54c2.93,0.11,5.9,0.85,8.11,2.9c2.35,2.18,3.11,5.43,3.34,8.51c0.04,0.48,0.79,0.48,0.75,0
						c-0.24-3.27-1.06-6.72-3.56-9.04c-2.36-2.19-5.5-3.01-8.64-3.12C123.83,70.77,123.83,71.52,124.31,71.54L124.31,71.54z"/>
				</g>
			</g>
			<path class="st2" d="M150.61,69.07c0,0,3.98-3.79,6.81,3.27C157.41,72.34,149.26,73.39,150.61,69.07z"/>
			<path class="st2" d="M147.78,73.48c0,0,3.05-7.41-4.95-7.41C142.82,66.07,143.79,76.5,147.78,73.48z"/>
			<path class="st2" d="M140.86,78.93c0,0-3.2,1.95,0.73,5.69C141.6,84.62,145.42,77.78,140.86,78.93z"/>
			<path class="st2" d="M129.14,71.54c0,0-3.2-2.28,0-6.44C129.14,65.1,134.89,70.99,129.14,71.54z"/>
			<polygon class="st1" points="124.31,72.15 46.75,72.15 46.75,79.74 50.71,79.74 50.71,94.11 57.23,94.11 57.33,80.64 
				62.73,80.64 62.62,94.11 69.14,94.11 69.14,79.65 124.31,79.65 			"/>
		</g>
		<text transform="matrix(1 0 0 1 44.0458 139.609)" class="st3 st4 st5">MultiKEY</text>
	</g>
</g>
</svg>
