<svg xmlns="http://www.w3.org/2000/svg" width="28" height="28" viewBox="0 0 28 28">
  <g id="Group_187" data-name="Group 187" transform="translate(-316 -33)">
    <g id="Path_233" data-name="Path 233" transform="translate(316 33)" fill="none">
      <path d="M14,0A14,14,0,0,1,28,14a14.173,14.173,0,0,1-2.364,7.787A13.86,13.86,0,0,1,14,28,14,14,0,0,1,14,0Z" stroke="none"/>
      <path d="M 14 2 C 10.79467964172363 2 7.781219482421875 3.248220443725586 5.514720916748047 5.514720916748047 C 3.248220443725586 7.781219482421875 2 10.79467964172363 2 14 C 2 17.2053108215332 3.248220443725586 20.21878051757812 5.514720916748047 22.48527908325195 C 7.781219482421875 24.75177955627441 10.79467964172363 26 14 26 C 16.04170989990234 26 18.0616397857666 25.48299980163574 19.84140968322754 24.5048999786377 C 21.53943061828613 23.57172012329102 22.9604606628418 22.25954055786133 23.95285987854004 20.70713996887207 C 25.33037948608398 18.56093978881836 26 16.36701011657715 26 14 C 26 10.79467964172363 24.75177955627441 7.781219482421875 22.48527908325195 5.514720916748047 C 20.21878051757812 3.248220443725586 17.2053108215332 2 14 2 M 14 0 C 21.73197937011719 0 28 6.268009185791016 28 14 C 28 16.77577018737793 27.19218063354492 19.36286926269531 25.63599967956543 21.78743934631348 C 23.31089973449707 25.42457962036133 18.95621109008789 28 14 28 C 6.268009185791016 28 0 21.73197937011719 0 14 C 0 6.268009185791016 6.268009185791016 0 14 0 Z" stroke="none" fill="#bebebe"/>
    </g>
    <g id="Group_44" data-name="Group 44" transform="translate(-715.377 -430.126)">
      <path id="Path_41" data-name="Path 41" d="M1046.886,482.5a1.258,1.258,0,1,1-1.258-1.258A1.257,1.257,0,0,1,1046.886,482.5Zm-1.217-10.837c-2.05,0-3.592,1.37-3.592,4.07h2.012c0-1.172.461-2.131,1.539-2.131a1.324,1.324,0,0,1,1.366,1.227c.063.848-.39,1.278-.963,1.823-1.488,1.414-1.433,2.06-1.433,3.661h2.006a2.712,2.712,0,0,1,.935-2.37,4.489,4.489,0,0,0,1.537-3.024A3.124,3.124,0,0,0,1045.669,471.667Z" fill="#bebebe"/>
    </g>
  </g>
</svg>
