<?xml version="1.0" encoding="utf-8"?>
<!-- Generator: Adobe Illustrator 24.0.0, SVG Export Plug-In . SVG Version: 6.00 Build 0)  -->
<svg version="1.1" id="Layer_1" xmlns="http://www.w3.org/2000/svg" xmlns:xlink="http://www.w3.org/1999/xlink" x="0px" y="0px"
	 width="23.9px" height="17.4px" viewBox="0 0 23.9 17.4" style="enable-background:new 0 0 23.9 17.4;" xml:space="preserve">
<style type="text/css">
	.st0{fill:#EDEDED;}
</style>
<g id="Group_73" transform="translate(-182.498 -154.264)">
	<g id="Group_62" transform="translate(182.498 154.264)">
		<path id="Path_50" class="st0" d="M0,17.4h5.9c0-7.1,3-4,3-9.7c0-2.2-1.3-3.4-3-3.4c-2.5,0-4.2,2.6-1.8,7.4c0.8,1.6-0.8,2-2.5,2.4
			C0.1,14.6,0,15.4,0,16.7L0,17.4z M20.4,9.7c-2.1-0.2-4,1.3-4.2,3.4c-0.2,2.1,1.3,4,3.4,4.2c2.1,0.2,4-1.3,4.2-3.4
			c0-0.1,0-0.2,0-0.4C24,11.5,22.4,9.8,20.4,9.7z M17.1,17.4H8v-0.9c0-1.8,0.1-2.9,2.1-3.4c2.2-0.6,4.4-1.1,3.4-3.2
			C10.4,3.6,12.6,0,16,0c4,0,4.8,4.5,3.1,8.6c-2.1,0.8-3.4,2.8-3.4,5C15.6,15,16.2,16.4,17.1,17.4L17.1,17.4z"/>
	</g>
	<g id="Group_63" transform="translate(200.694 165.055)">
		<path id="Path_51" class="st0" d="M2.6,2.9l1.9-1.5L2.6,0v0.6C1.3,1,0.3,2,0,3.3c0.7-0.7,1.6-1.1,2.6-1.1L2.6,2.9z"/>
	</g>
	<g id="Group_64" transform="translate(200.908 167.369)">
		<path id="Path_52" class="st0" d="M1.9,0.4L0,1.9l1.9,1.4V2.7C3.2,2.3,4.2,1.3,4.5,0C3.8,0.7,2.9,1.1,1.9,1.1L1.9,0.4z"/>
	</g>
</g>
</svg>
