<?xml version="1.0" encoding="utf-8"?>
<!-- Generator: Adobe Illustrator 24.0.0, SVG Export Plug-In . SVG Version: 6.00 Build 0)  -->
<svg version="1.1" id="Layer_1" xmlns="http://www.w3.org/2000/svg" xmlns:xlink="http://www.w3.org/1999/xlink" x="0px" y="0px"
	 width="8.2px" height="14.3px" viewBox="0 0 8.2 14.3" style="enable-background:new 0 0 8.2 14.3;" xml:space="preserve">
<style type="text/css">
	.st0{fill:#E3E3E3;}
</style>
<g id="Group_44" transform="translate(-1042.077 -471.667)">
	<path id="Path_41" class="st0" d="M1047.7,484.4c0,0.8-0.7,1.5-1.5,1.5c-0.8,0-1.5-0.7-1.5-1.5c0-0.8,0.7-1.5,1.5-1.5
		C1047.1,483,1047.7,483.6,1047.7,484.4C1047.7,484.4,1047.7,484.4,1047.7,484.4z M1046.3,471.7c-2.4,0-4.2,1.6-4.2,4.8h2.4
		c0-1.4,0.5-2.5,1.8-2.5c0.8,0,1.5,0.6,1.6,1.4c0.1,1-0.5,1.5-1.1,2.1c-1.8,1.7-1.7,2.4-1.7,4.3h2.4c-0.1-1.1,0.3-2.1,1.1-2.8
		c1-0.9,1.7-2.2,1.8-3.6c0.1-2-1.5-3.8-3.5-3.8C1046.6,471.7,1046.5,471.7,1046.3,471.7z"/>
</g>
</svg>
