<?xml version="1.0" encoding="utf-8"?>
<!-- Generator: Adobe Illustrator 24.0.0, SVG Export Plug-In . SVG Version: 6.00 Build 0)  -->
<svg version="1.1" id="Layer_1" xmlns="http://www.w3.org/2000/svg" xmlns:xlink="http://www.w3.org/1999/xlink" x="0px" y="0px"
	 width="306px" height="193px" viewBox="0 0 306 193" style="enable-background:new 0 0 306 193;" xml:space="preserve">
<style type="text/css">
	.st0{fill:none;}
	.st1{fill:#03454E;}
	.st2{fill:url(#Skærmbillede_2019-11-12_kl._12.48.50_1_);}
</style>
<pattern  y="193" width="418" height="286" patternUnits="userSpaceOnUse" id="pattern_3" viewBox="0 -286 418 286" style="overflow:visible;">
	<g>
		<rect y="-286" class="st0" width="418" height="286"/>
		
			<image style="overflow:visible;enable-background:new    ;" width="418" height="286" xlink:href="77713970BACE0486.png"  transform="matrix(1 0 0 -1 0 0)">
		</image>
	</g>
</pattern>
<g transform="matrix(1, 0, 0, 1, 0, 0)">
	<g id="Group_1" transform="translate(0 6)">
		<path id="Rectangle_1" class="st1" d="M14-6h278c7.7,0,14,6.3,14,14v165c0,7.7-6.3,14-14,14H14c-7.7,0-14-6.3-14-14V8
			C0,0.3,6.3-6,14-6z"/>
		
			<pattern  id="Skærmbillede_2019-11-12_kl._12.48.50_1_" xlink:href="#pattern_3" patternTransform="matrix(0.6531 0 0 -0.6538 -3043.6484 -13786.0771)">
		</pattern>
		<rect id="Skærmbillede_2019-11-12_kl._12.48.50" x="12.5" y="-9" class="st2" width="273" height="187"/>
	</g>
</g>
</svg>
