<?xml version="1.0" encoding="utf-8"?>
<!-- Generator: Adobe Illustrator 24.0.0, SVG Export Plug-In . SVG Version: 6.00 Build 0)  -->
<svg version="1.1" xmlns="http://www.w3.org/2000/svg" xmlns:xlink="http://www.w3.org/1999/xlink" x="0px" y="0px" width="306px"
	 height="193px" viewBox="0 0 306 193" style="enable-background:new 0 0 306 193;" xml:space="preserve">
<style type="text/css">
	.st0{fill:none;}
	.st1{display:none;}
	.st2{fill:#03454E;}
	.st3{fill:url(#Skærmbillede_2019-11-01_kl._13.34.21-2_1_);}
</style>
<pattern  width="319" height="319" patternUnits="userSpaceOnUse" id="pattern" viewBox="0 -319 319 319" style="overflow:visible;">
	<g>
		<rect x="0" y="-319" class="st0" width="319" height="319"/>
		
			<image style="overflow:visible;enable-background:new    ;" width="652" height="420" xlink:href="76BC737850FB837F.png"  transform="matrix(0.4893 0 0 -0.4893 0 -60.889)">
		</image>
	</g>
</pattern>
<g id="Layer_2" class="st1">
</g>
<g id="Layer_1">
	<path class="st2" d="M292,193H14c-7.7,0-14-6.3-14-14V14C0,6.3,6.3,0,14,0h278c7.7,0,14,6.3,14,14v165C306,186.7,299.7,193,292,193
		z"/>
</g>
<g id="Layer_3">
	<g id="Group_60" transform="translate(9 12.781)">
		<g transform="matrix(1, 0, 0, 1, -9, -12.78)">
			
				<pattern  id="Skærmbillede_2019-11-01_kl._13.34.21-2_1_" xlink:href="#pattern" patternTransform="matrix(1 0 0 -1 -258 -16205.8896)">
			</pattern>
			<path id="Skærmbillede_2019-11-01_kl._13.34.21-2" class="st3" d="M-4.9,308.2h291c7.7,0,14,6.3,14,14l0,0v101l0,0h-319l0,0
				v-101C-18.9,314.5-12.6,308.2-4.9,308.2z"/>
		</g>
	</g>
	
		<image style="overflow:visible;" width="418" height="286" xlink:href="../../../../../Desktop/Skærmbillede 2019-11-12 kl. 12.48.50.png"  transform="matrix(0.5959 0 0 0.5959 31 -5.6316)">
	</image>
</g>
</svg>
